<svg width="206" height="198" viewBox="0 0 206 198" fill="none" xmlns="http://www.w3.org/2000/svg">
<path fill-rule="evenodd" clip-rule="evenodd" d="M0.333252 36C0.333251 31.2709 1.29952 26.5881 3.17687 22.2192C5.05421 17.8503 7.80583 13.8809 11.2745 10.5378C14.7432 7.19465 18.861 4.54328 23.3927 2.73517C27.9243 0.927063 32.781 -0.00236005 37.6852 4.50041e-06H168.315C173.219 -0.00236005 178.076 0.927063 182.607 2.73517C187.139 4.54328 191.257 7.19465 194.725 10.5378C198.194 13.8809 200.946 17.8503 202.823 22.2192C204.7 26.5881 205.667 31.2709 205.667 36V162C205.667 171.548 201.733 180.705 194.732 187.456C187.731 194.207 178.235 198 168.333 198H37.6666C27.7652 198 18.2693 194.207 11.2679 187.456C4.26657 180.705 0.333252 171.548 0.333252 162V36ZM177.667 99C177.667 118.096 169.8 136.409 155.797 149.912C141.795 163.414 122.803 171 103 171C83.1971 171 64.2053 163.414 50.2026 149.912C36.1999 136.409 28.3333 118.096 28.3333 99C28.3333 79.9044 36.1999 61.5909 50.2026 48.0883C64.2053 34.5857 83.1971 27 103 27C122.803 27 141.795 34.5857 155.797 48.0883C169.8 61.5909 177.667 79.9044 177.667 99ZM103 117C107.951 117 112.699 115.104 116.199 111.728C119.7 108.352 121.667 103.774 121.667 99C121.667 94.2261 119.7 89.6477 116.199 86.2721C112.699 82.8964 107.951 81 103 81C98.0492 81 93.3013 82.8964 89.8006 86.2721C86.2999 89.6477 84.3332 94.2261 84.3332 99C84.3332 103.774 86.2999 108.352 89.8006 111.728C93.3013 115.104 98.0492 117 103 117Z" fill="#151516"/>
</svg>
