<svg width="206" height="198" viewBox="0 0 206 198" fill="none" xmlns="http://www.w3.org/2000/svg">
<path fill-rule="evenodd" clip-rule="evenodd" d="M0 36C-6.13032e-07 31.2709 0.966273 26.5881 2.84362 22.2192C4.72096 17.8503 7.47258 13.8809 10.9413 10.5378C14.41 7.19465 18.5278 4.54328 23.0594 2.73517C27.5911 0.927063 32.4477 -0.00236005 37.352 4.50041e-06H167.981C172.886 -0.00236005 177.742 0.927063 182.274 2.73517C186.806 4.54328 190.923 7.19465 194.392 10.5378C197.861 13.8809 200.612 17.8503 202.49 22.2192C204.367 26.5881 205.333 31.2709 205.333 36V162C205.333 171.548 201.4 180.705 194.399 187.456C187.397 194.207 177.901 198 168 198H37.3333C27.4319 198 17.936 194.207 10.9347 187.456C3.93332 180.705 0 171.548 0 162V36ZM177.333 99C177.333 118.096 169.467 136.409 155.464 149.912C141.461 163.414 122.469 171 102.667 171C82.8638 171 63.8721 163.414 49.8694 149.912C35.8666 136.409 28 118.096 28 99C28 79.9044 35.8666 61.5909 49.8694 48.0883C63.8721 34.5857 82.8638 27 102.667 27C122.469 27 141.461 34.5857 155.464 48.0883C169.467 61.5909 177.333 79.9044 177.333 99ZM102.667 117C107.617 117 112.365 115.104 115.866 111.728C119.367 108.352 121.333 103.774 121.333 99C121.333 94.2261 119.367 89.6477 115.866 86.2721C112.365 82.8964 107.617 81 102.667 81C97.716 81 92.968 82.8964 89.4673 86.2721C85.9667 89.6477 84 94.2261 84 99C84 103.774 85.9667 108.352 89.4673 111.728C92.968 115.104 97.716 117 102.667 117Z" fill="#E5EEF2"/>
</svg>
