<svg width="24" height="24" viewBox="0 0 24 24" fill="none" xmlns="http://www.w3.org/2000/svg">
<path d="M7.125 12C8.98896 12 10.5 10.489 10.5 8.625C10.5 6.76104 8.98896 5.25 7.125 5.25C5.26104 5.25 3.75 6.76104 3.75 8.625C3.75 10.489 5.26104 12 7.125 12Z" fill="#A2ACAF"/>
<path d="M10.9688 13.875C9.64875 13.2047 8.19188 12.9375 7.125 12.9375C5.03531 12.9375 0.75 14.2191 0.75 16.7812V18.75H7.78125V17.9967C7.78125 17.1061 8.15625 16.2131 8.8125 15.4688C9.33609 14.8744 10.0692 14.3227 10.9688 13.875Z" fill="#A2ACAF"/>
<path d="M15.9375 13.5C13.4967 13.5 8.625 15.0075 8.625 18V20.25H23.25V18C23.25 15.0075 18.3783 13.5 15.9375 13.5Z" fill="#A2ACAF"/>
<path d="M15.9375 12C18.2157 12 20.0625 10.1532 20.0625 7.875C20.0625 5.59683 18.2157 3.75 15.9375 3.75C13.6593 3.75 11.8125 5.59683 11.8125 7.875C11.8125 10.1532 13.6593 12 15.9375 12Z" fill="#A2ACAF"/>
</svg>
