<svg width="27" height="27" viewBox="0 0 27 27" fill="none" xmlns="http://www.w3.org/2000/svg">
<g clip-path="url(#clip0_175_6)">
<path d="M0 2.25V10.125C0 10.4297 0.111328 10.6934 0.333984 10.916C0.556641 11.1387 0.820312 11.25 1.125 11.25H9C9.49219 11.25 9.83789 11.0156 10.0371 10.5469C10.2363 10.0898 10.1543 9.68555 9.79102 9.33398L7.36523 6.9082C9.09961 5.30273 11.1445 4.5 13.5 4.5C14.7188 4.5 15.8818 4.7373 16.9893 5.21191C18.0967 5.68652 19.0547 6.32812 19.8633 7.13672C20.6719 7.94531 21.3135 8.90332 21.7881 10.0107C22.2627 11.1182 22.5 12.2812 22.5 13.5C22.5 14.7188 22.2627 15.8818 21.7881 16.9893C21.3135 18.0967 20.6719 19.0547 19.8633 19.8633C19.0547 20.6719 18.0967 21.3135 16.9893 21.7881C15.8818 22.2627 14.7188 22.5 13.5 22.5C12.1055 22.5 10.7871 22.1953 9.54492 21.5859C8.30273 20.9766 7.25391 20.1152 6.39844 19.002C6.31641 18.8848 6.18164 18.8145 5.99414 18.791C5.81836 18.791 5.67188 18.8438 5.55469 18.9492L3.14648 21.375C3.04102 21.4688 2.98535 21.5889 2.97949 21.7354C2.97363 21.8818 3.01758 22.0137 3.11133 22.1309C4.38867 23.6777 5.93555 24.876 7.75195 25.7256C9.56836 26.5752 11.4844 27 13.5 27C15.3281 27 17.0742 26.6426 18.7383 25.9277C20.4023 25.2129 21.8379 24.252 23.0449 23.0449C24.252 21.8379 25.2129 20.4023 25.9277 18.7383C26.6426 17.0742 27 15.3281 27 13.5C27 11.6719 26.6426 9.92578 25.9277 8.26172C25.2129 6.59766 24.252 5.16211 23.0449 3.95508C21.8379 2.74805 20.4023 1.78711 18.7383 1.07227C17.0742 0.357422 15.3281 0 13.5 0C11.7773 0 10.1104 0.325195 8.49902 0.975586C6.8877 1.62598 5.45508 2.54297 4.20117 3.72656L1.91602 1.45898C1.57617 1.0957 1.16602 1.01367 0.685547 1.21289C0.228516 1.41211 0 1.75781 0 2.25Z" fill="#E5EEF2"/>
<path d="M14.2139 12.612C14.7259 12.612 15.2059 12.712 15.6539 12.912C16.1099 13.112 16.4779 13.42 16.7579 13.836C17.0379 14.252 17.1779 14.764 17.1779 15.372C17.1779 16.028 17.0259 16.568 16.7219 16.992C16.4179 17.408 16.0179 17.712 15.5219 17.904C15.0339 18.096 14.5059 18.192 13.9379 18.192C13.2019 18.192 12.5579 18 12.0059 17.616C11.4619 17.232 11.0659 16.68 10.8179 15.96H12.0659C12.2259 16.296 12.4579 16.568 12.7619 16.776C13.0739 16.984 13.4659 17.088 13.9379 17.088C14.5619 17.088 15.0779 16.932 15.4859 16.62C15.8939 16.308 16.0979 15.892 16.0979 15.372C16.0979 14.988 15.9979 14.668 15.7979 14.412C15.6059 14.148 15.3579 13.956 15.0539 13.836C14.7499 13.708 14.4299 13.644 14.0939 13.644C13.6219 13.644 13.1979 13.724 12.8219 13.884C12.4459 14.036 12.1739 14.244 12.0059 14.508H10.9979L11.9579 9.48001H16.2539V10.512H12.9179L12.2939 13.26C12.8379 12.828 13.4779 12.612 14.2139 12.612Z" fill="#E5EEF2"/>
</g>
<defs>
<clipPath id="clip0_175_6">
<rect width="27" height="27" fill="white" transform="matrix(-1 0 0 1 27 0)"/>
</clipPath>
</defs>
</svg>
