<svg width="422" height="220" viewBox="0 0 422 220" fill="none" xmlns="http://www.w3.org/2000/svg">
<g clip-path="url(#clip0_34_34)">
<path d="M221 146C224.183 146 227.235 147.264 229.485 149.515C231.736 151.765 233 154.817 233 158C233 161.183 231.736 164.235 229.485 166.485C227.235 168.736 224.183 170 221 170L125 170C121.817 170 118.765 171.264 116.515 173.515C114.264 175.765 113 178.817 113 182C113 185.183 114.264 188.235 116.515 190.485C118.765 192.736 121.817 194 125 194C128.864 193.888 132.537 192.294 135.26 189.55C137.537 187.475 140.524 186.354 143.604 186.421C146.684 186.487 149.62 187.736 151.805 189.908C153.989 192.08 155.255 195.008 155.34 198.088C155.425 201.167 154.322 204.161 152.26 206.45C145.024 213.703 135.244 217.846 125 218C115.452 218 106.295 214.207 99.5442 207.456C92.7928 200.705 89 191.548 89 182C89 172.452 92.7928 163.295 99.5442 156.544C106.295 149.793 115.452 146 125 146L221 146ZM37 182C47.2579 181.857 57.0541 177.712 64.3 170.45C66.3619 168.161 67.4646 165.167 67.3799 162.088C67.2951 159.008 66.0293 156.08 63.8446 153.908C61.6599 151.736 58.7237 150.487 55.6438 150.421C52.564 150.354 49.5765 151.475 47.3 153.55C44.5674 156.304 40.8781 157.898 37 158C33.8174 158 30.7652 156.736 28.5147 154.485C26.2643 152.235 25 149.183 25 146C25 142.817 26.2643 139.765 28.5147 137.515C30.7652 135.264 33.8174 134 37 134L213 134C216.183 134 219.235 132.736 221.485 130.485C223.736 128.235 225 125.183 225 122C225 118.817 223.736 115.765 221.485 113.515C219.235 111.264 216.183 110 213 110L37 110C27.4522 110 18.2955 113.793 11.5442 120.544C4.79285 127.295 1 136.452 1 146C1 155.548 4.79285 164.705 11.5442 171.456C18.2955 178.207 27.4522 182 37 182ZM93 98L205 98C208.183 98 211.235 96.7357 213.485 94.4853C215.736 92.2348 217 89.1826 217 86C217 82.8174 215.736 79.7652 213.485 77.5147C211.235 75.2643 208.183 74 205 74L93 74C89.8174 74 86.7652 72.7357 84.5147 70.4853C82.2643 68.2348 81 65.1826 81 62C81 58.8174 82.2643 55.7652 84.5147 53.5147C86.7652 51.2643 89.8174 50 93 50C96.8668 50.114 100.543 51.7067 103.27 54.45C104.358 55.6577 105.68 56.6318 107.156 57.3131C108.632 57.9944 110.23 58.3688 111.855 58.4135C113.48 58.4582 115.097 58.1724 116.608 57.5733C118.119 56.9742 119.493 56.0743 120.646 54.9283C121.799 53.7823 122.707 52.4141 123.315 50.9066C123.923 49.399 124.218 47.7837 124.183 46.1586C124.148 44.5335 123.783 42.9325 123.11 41.4527C122.437 39.9728 121.471 38.6451 120.27 37.55C113.031 30.2949 103.247 26.1509 93 26C83.4522 26 74.2955 29.7928 67.5442 36.5442C60.7928 43.2955 57 52.4522 57 62C57 71.5478 60.7928 80.7045 67.5442 87.4558C74.2955 94.2072 83.4522 98 93 98Z" fill="#151516"/>
<path d="M419.692 150.478C421.237 158.915 419.529 167.619 414.919 174.807C410.309 181.996 403.145 187.126 394.892 189.148L392.98 189.555L382.057 191.554C373.7 193.084 365.068 191.332 357.927 186.656C350.787 181.98 345.678 174.735 343.646 166.401L343.237 164.47L337.182 131.39C335.638 122.953 337.345 114.249 341.955 107.061C346.565 99.8723 353.729 94.7422 361.982 92.7202L363.894 92.3133L374.817 90.3143C378.65 89.6126 382.452 89.6006 386.084 90.2009L385.739 88.3153C382.043 68.065 370.613 50.0641 353.913 38.1932C337.213 26.3222 316.58 21.532 296.463 24.8551C276.346 28.1781 258.355 39.3484 246.369 55.9578C234.383 72.5672 229.362 93.2856 232.388 113.647L232.828 116.301L233.171 118.176C235.724 116.705 238.517 115.556 241.482 114.797L243.75 114.302L254.673 112.303C263.03 110.773 271.662 112.525 278.803 117.201C285.943 121.876 291.052 129.122 293.084 137.456L293.494 139.386L299.548 172.466C301.093 180.904 299.385 189.607 294.775 196.796C290.165 203.984 283.001 209.114 274.748 211.136L272.836 211.543L261.913 213.542C253.556 215.072 244.924 213.32 237.783 208.645C230.643 203.969 225.534 196.723 223.502 188.39L223.093 186.459L210.984 120.299C206.224 94.2365 211.809 67.3652 226.534 45.489C241.259 23.6127 263.941 8.48734 289.682 3.37969C315.423 -1.72797 342.156 3.59204 364.108 18.1907C386.059 32.7893 401.468 55.4948 407.005 81.4032L407.583 84.3173L419.692 150.478Z" fill="#151516"/>
</g>
<defs>
<clipPath id="clip0_34_34">
<rect width="422" height="220" fill="white"/>
</clipPath>
</defs>
</svg>
