<svg width="50" height="50" viewBox="0 0 50 50" fill="none" xmlns="http://www.w3.org/2000/svg">
<rect width="50" height="50" rx="25" fill="#92C3D8"/>
<path d="M18.9543 17.9738H17.6471C16.9537 17.9738 16.2887 18.2493 15.7984 18.7396C15.3082 19.2299 15.0327 19.8948 15.0327 20.5882V32.3529C15.0327 33.0463 15.3082 33.7113 15.7984 34.2016C16.2887 34.6919 16.9537 34.9673 17.6471 34.9673H29.4118C30.1052 34.9673 30.7702 34.6919 31.2604 34.2016C31.7507 33.7113 32.0262 33.0463 32.0262 32.3529V31.0457" stroke="#151516" stroke-width="2" stroke-linecap="round" stroke-linejoin="round"/>
<path d="M30.7189 15.3595L34.6405 19.281M36.451 17.4313C36.9658 16.9165 37.255 16.2183 37.255 15.4902C37.255 14.7621 36.9658 14.0638 36.451 13.549C35.9361 13.0342 35.2379 12.7449 34.5098 12.7449C33.7817 12.7449 33.0834 13.0342 32.5686 13.549L21.5686 24.5098V28.4313H25.4902L36.451 17.4313Z" stroke="#151516" stroke-width="2" stroke-linecap="round" stroke-linejoin="round"/>
</svg>
