<svg width="385" height="234" viewBox="0 0 385 234" fill="none" xmlns="http://www.w3.org/2000/svg">
<path d="M141.667 12.9167H56.6666C48.875 12.9167 42.5 18.7292 42.5 25.8333V103.333C42.5 110.437 48.875 116.25 56.6666 116.25H141.667C149.458 116.25 155.833 110.437 155.833 103.333V25.8333C155.833 18.7292 149.458 12.9167 141.667 12.9167ZM127.5 45.2083H106.25V80.7292C106.25 85.0113 104.384 89.118 101.063 92.146C97.7424 95.1739 93.2382 96.875 88.5416 96.875C83.8451 96.875 79.3409 95.1739 76.0199 92.146C72.699 89.118 70.8333 85.0113 70.8333 80.7292C70.8333 76.447 72.699 72.3403 76.0199 69.3123C79.3409 66.2844 83.8451 64.5833 88.5416 64.5833C92.5791 64.5833 96.1916 65.8104 99.1666 67.8771V32.2917H127.5V45.2083ZM28.3333 38.75H14.1666V129.167C14.1666 136.271 20.5416 142.083 28.3333 142.083H127.5V129.167H28.3333V38.75Z" fill="#151516"/>
<path fill-rule="evenodd" clip-rule="evenodd" d="M170.333 63C170.333 58.2709 171.3 53.5881 173.177 49.2192C175.054 44.8503 177.806 40.8809 181.275 37.5378C184.743 34.1946 188.861 31.5433 193.393 29.7352C197.924 27.9271 202.781 26.9976 207.685 27H338.315C343.219 26.9976 348.076 27.9271 352.607 29.7352C357.139 31.5433 361.257 34.1946 364.725 37.5378C368.194 40.8809 370.946 44.8503 372.823 49.2192C374.7 53.5881 375.667 58.2709 375.667 63V189C375.667 198.548 371.733 207.705 364.732 214.456C357.731 221.207 348.235 225 338.333 225H207.667C197.765 225 188.269 221.207 181.268 214.456C174.267 207.705 170.333 198.548 170.333 189V63ZM347.667 126C347.667 145.096 339.8 163.409 325.797 176.912C311.795 190.414 292.803 198 273 198C253.197 198 234.205 190.414 220.203 176.912C206.2 163.409 198.333 145.096 198.333 126C198.333 106.904 206.2 88.5909 220.203 75.0883C234.205 61.5857 253.197 54 273 54C292.803 54 311.795 61.5857 325.797 75.0883C339.8 88.5909 347.667 106.904 347.667 126ZM273 144C277.951 144 282.699 142.104 286.199 138.728C289.7 135.352 291.667 130.774 291.667 126C291.667 121.226 289.7 116.648 286.199 113.272C282.699 109.896 277.951 108 273 108C268.049 108 263.301 109.896 259.801 113.272C256.3 116.648 254.333 121.226 254.333 126C254.333 130.774 256.3 135.352 259.801 138.728C263.301 142.104 268.049 144 273 144Z" fill="#151516"/>
</svg>
