<svg width="27" height="27" viewBox="0 0 27 27" fill="none" xmlns="http://www.w3.org/2000/svg">
<g clip-path="url(#clip0_175_9)">
<path d="M27 2.25V10.125C27 10.4297 26.8887 10.6934 26.666 10.916C26.4434 11.1387 26.1797 11.25 25.875 11.25H18C17.5078 11.25 17.1621 11.0156 16.9629 10.5469C16.7637 10.0898 16.8457 9.68555 17.209 9.33398L19.6348 6.9082C17.9004 5.30273 15.8555 4.5 13.5 4.5C12.2812 4.5 11.1182 4.7373 10.0107 5.21191C8.90332 5.68652 7.94531 6.32812 7.13672 7.13672C6.32812 7.94531 5.68652 8.90332 5.21191 10.0107C4.7373 11.1182 4.5 12.2812 4.5 13.5C4.5 14.7188 4.7373 15.8818 5.21191 16.9893C5.68652 18.0967 6.32812 19.0547 7.13672 19.8633C7.94531 20.6719 8.90332 21.3135 10.0107 21.7881C11.1182 22.2627 12.2812 22.5 13.5 22.5C14.8945 22.5 16.2129 22.1953 17.4551 21.5859C18.6973 20.9766 19.7461 20.1152 20.6016 19.002C20.6836 18.8848 20.8184 18.8145 21.0059 18.791C21.1816 18.791 21.3281 18.8438 21.4453 18.9492L23.8535 21.375C23.959 21.4688 24.0146 21.5889 24.0205 21.7354C24.0264 21.8818 23.9824 22.0137 23.8887 22.1309C22.6113 23.6777 21.0645 24.876 19.248 25.7256C17.4316 26.5752 15.5156 27 13.5 27C11.6719 27 9.92578 26.6426 8.26172 25.9277C6.59766 25.2129 5.16211 24.252 3.95508 23.0449C2.74805 21.8379 1.78711 20.4023 1.07227 18.7383C0.357422 17.0742 0 15.3281 0 13.5C0 11.6719 0.357422 9.92578 1.07227 8.26172C1.78711 6.59766 2.74805 5.16211 3.95508 3.95508C5.16211 2.74805 6.59766 1.78711 8.26172 1.07227C9.92578 0.357422 11.6719 0 13.5 0C15.2227 0 16.8896 0.325195 18.501 0.975586C20.1123 1.62598 21.5449 2.54297 22.7988 3.72656L25.084 1.45898C25.4238 1.0957 25.834 1.01367 26.3145 1.21289C26.7715 1.41211 27 1.75781 27 2.25Z" fill="#E5EEF2"/>
<path d="M13.2139 12.612C13.7259 12.612 14.2059 12.712 14.6539 12.912C15.1099 13.112 15.4779 13.42 15.7579 13.836C16.0379 14.252 16.1779 14.764 16.1779 15.372C16.1779 16.028 16.0259 16.568 15.7219 16.992C15.4179 17.408 15.0179 17.712 14.5219 17.904C14.0339 18.096 13.5059 18.192 12.9379 18.192C12.2019 18.192 11.5579 18 11.0059 17.616C10.4619 17.232 10.0659 16.68 9.81787 15.96H11.0659C11.2259 16.296 11.4579 16.568 11.7619 16.776C12.0739 16.984 12.4659 17.088 12.9379 17.088C13.5619 17.088 14.0779 16.932 14.4859 16.62C14.8939 16.308 15.0979 15.892 15.0979 15.372C15.0979 14.988 14.9979 14.668 14.7979 14.412C14.6059 14.148 14.3579 13.956 14.0539 13.836C13.7499 13.708 13.4299 13.644 13.0939 13.644C12.6219 13.644 12.1979 13.724 11.8219 13.884C11.4459 14.036 11.1739 14.244 11.0059 14.508H9.99787L10.9579 9.48001H15.2539V10.512H11.9179L11.2939 13.26C11.8379 12.828 12.4779 12.612 13.2139 12.612Z" fill="#E5EEF2"/>
</g>
<defs>
<clipPath id="clip0_175_9">
<rect width="27" height="27" fill="white" transform="matrix(-1 0 0 1 27 0)"/>
</clipPath>
</defs>
</svg>
