<svg width="43" height="40" viewBox="0 0 43 40" fill="none" xmlns="http://www.w3.org/2000/svg">
<path d="M21.7125 33.4187L21.5 33.6312L21.2663 33.4187C11.1725 24.26 4.5 18.2038 4.5 12.0625C4.5 7.8125 7.6875 4.625 11.9375 4.625C15.21 4.625 18.3975 6.75 19.5238 9.64H23.4762C24.6025 6.75 27.79 4.625 31.0625 4.625C35.3125 4.625 38.5 7.8125 38.5 12.0625C38.5 18.2038 31.8275 24.26 21.7125 33.4187ZM31.0625 0.375C27.365 0.375 23.8162 2.09625 21.5 4.795C19.1838 2.09625 15.635 0.375 11.9375 0.375C5.3925 0.375 0.25 5.49625 0.25 12.0625C0.25 20.0737 7.475 26.64 18.4188 36.5638L21.5 39.3688L24.5812 36.5638C35.525 26.64 42.75 20.0737 42.75 12.0625C42.75 5.49625 37.6075 0.375 31.0625 0.375Z" fill="#232326"/>
</svg>
