<svg width="38" height="38" viewBox="0 0 38 38" fill="none" xmlns="http://www.w3.org/2000/svg">
<rect width="38" height="38" rx="19" fill="#E5EEF2"/>
<path d="M19 8.58655C17.7273 8.58655 16.6859 9.62789 16.6859 10.9007C16.6859 12.1734 17.7273 13.2148 19 13.2148C20.2728 13.2148 21.3141 12.1734 21.3141 10.9007C21.3141 9.62789 20.2728 8.58655 19 8.58655ZM19 24.7853C17.7273 24.7853 16.6859 25.8266 16.6859 27.0994C16.6859 28.3721 17.7273 29.4135 19 29.4135C20.2728 29.4135 21.3141 28.3721 21.3141 27.0994C21.3141 25.8266 20.2728 24.7853 19 24.7853ZM19 16.6859C17.7273 16.6859 16.6859 17.7273 16.6859 19C16.6859 20.2728 17.7273 21.3141 19 21.3141C20.2728 21.3141 21.3141 20.2728 21.3141 19C21.3141 17.7273 20.2728 16.6859 19 16.6859Z" fill="#232326"/>
</svg>
