<svg width="35" height="35" viewBox="0 0 35 35" fill="none" xmlns="http://www.w3.org/2000/svg">
<path d="M4.17671 4.88366C4.00226 4.75945 3.79699 4.68566 3.58339 4.67036C3.36979 4.65506 3.1561 4.69885 2.96573 4.79692C2.77536 4.895 2.61565 5.04358 2.50412 5.22639C2.39258 5.40919 2.33351 5.61918 2.33337 5.83332V29.1667C2.33351 29.3808 2.39258 29.5908 2.50412 29.7736C2.61565 29.9564 2.77536 30.105 2.96573 30.2031C3.1561 30.3011 3.36979 30.3449 3.58339 30.3296C3.79699 30.3143 4.00226 30.2405 4.17671 30.1163L20.51 18.4497C20.6613 18.3417 20.7846 18.1993 20.8696 18.0341C20.9547 17.8689 20.999 17.6858 20.999 17.5C20.999 17.3142 20.9547 17.1311 20.8696 16.9659C20.7846 16.8007 20.6613 16.6582 20.51 16.5503L4.17671 4.88366ZM30.3334 30.3333H32.6667V4.66666H30.3334V30.3333Z" fill="#E5EEF2"/>
</svg>
