<svg width="362" height="362" viewBox="0 0 362 362" fill="none" xmlns="http://www.w3.org/2000/svg">
<rect width="362" height="362" fill="#151516"/>
<path fill-rule="evenodd" clip-rule="evenodd" d="M91.1667 74.0417C91.1667 69.7286 92.0121 65.4577 93.6548 61.4731C95.2975 57.4886 97.7052 53.8683 100.74 50.8192C103.775 47.7702 107.378 45.352 111.344 43.703C115.309 42.0539 119.558 41.2062 123.85 41.2084H238.15C242.442 41.2062 246.691 42.0539 250.656 43.703C254.622 45.352 258.225 47.7702 261.26 50.8192C264.295 53.8683 266.702 57.4886 268.345 61.4731C269.988 65.4577 270.833 69.7286 270.833 74.0417V188.958C270.833 197.666 267.392 206.018 261.265 212.175C255.139 218.332 246.83 221.792 238.167 221.792H123.833C115.17 221.792 106.861 218.332 100.735 212.175C94.6083 206.018 91.1667 197.666 91.1667 188.958V74.0417ZM246.333 131.5C246.333 148.916 239.45 165.619 227.198 177.933C214.945 190.248 198.327 197.167 181 197.167C163.673 197.167 147.055 190.248 134.802 177.933C122.55 165.619 115.667 148.916 115.667 131.5C115.667 114.084 122.55 97.3816 134.802 85.0667C147.055 72.7518 163.673 65.8334 181 65.8334C198.327 65.8334 214.945 72.7518 227.198 85.0667C239.45 97.3816 246.333 114.084 246.333 131.5ZM181 147.917C185.332 147.917 189.486 146.187 192.549 143.108C195.612 140.03 197.333 135.854 197.333 131.5C197.333 127.146 195.612 122.97 192.549 119.892C189.486 116.813 185.332 115.083 181 115.083C176.668 115.083 172.514 116.813 169.451 119.892C166.387 122.97 164.667 127.146 164.667 131.5C164.667 135.854 166.387 140.03 169.451 143.108C172.514 146.187 176.668 147.917 181 147.917Z" fill="#232326"/>
<path d="M107.047 254.44V257.536H98.7667V280H95.5267V257.536H87.2467V254.44H107.047ZM132.995 275.608C133.019 276.112 133.163 276.472 133.427 276.688C133.715 276.88 134.039 276.964 134.399 276.94V280.036C133.271 280.036 132.335 279.928 131.591 279.712C130.871 279.496 130.355 278.98 130.043 278.164C129.491 279.004 128.651 279.616 127.523 280C126.395 280.36 125.183 280.54 123.887 280.54C121.943 280.54 120.311 280.096 118.991 279.208C117.671 278.32 117.011 276.868 117.011 274.852V274.456C117.011 272.848 117.635 271.552 118.883 270.568C120.131 269.56 121.799 269.056 123.887 269.056H129.755C129.731 268.168 129.623 267.46 129.431 266.932C129.239 266.38 128.867 265.96 128.315 265.672C127.787 265.384 127.007 265.24 125.975 265.24H117.659C116.987 265.24 116.279 265.456 115.535 265.888C114.791 266.32 114.155 266.992 113.627 267.904C113.099 268.816 112.835 269.956 112.835 271.324V280H109.595V262.72H112.835V265.348C113.411 264.436 114.251 263.68 115.355 263.08C116.459 262.456 117.575 262.144 118.703 262.144H127.019C128.795 262.144 130.235 262.708 131.339 263.836C132.443 264.964 132.995 266.776 132.995 269.272V275.608ZM124.931 277.444C126.011 277.444 127.079 277.228 128.135 276.796C129.215 276.364 129.755 275.644 129.755 274.636V272.152H124.931C121.811 272.152 120.251 273.004 120.251 274.708C120.251 275.716 120.599 276.424 121.295 276.832C122.015 277.24 123.227 277.444 124.931 277.444ZM137.651 269.992C137.651 268.288 137.987 266.848 138.659 265.672C139.331 264.472 140.231 263.584 141.359 263.008C142.487 262.432 143.723 262.144 145.067 262.144H147.155C148.907 262.144 150.407 262.672 151.655 263.728C152.903 264.76 153.635 266.284 153.851 268.3H150.467C150.251 267.292 149.795 266.536 149.099 266.032C148.427 265.504 147.431 265.24 146.111 265.24C144.239 265.24 142.895 265.696 142.079 266.608C141.287 267.52 140.891 268.84 140.891 270.568V272.152C140.891 273.88 141.287 275.2 142.079 276.112C142.895 277.024 144.239 277.48 146.111 277.48C147.551 277.48 148.619 277.18 149.315 276.58C150.011 275.98 150.431 275.116 150.575 273.988H153.923C153.779 276.148 153.071 277.792 151.799 278.92C150.527 280.024 148.979 280.576 147.155 280.576H145.067C143.723 280.576 142.487 280.288 141.359 279.712C140.231 279.136 139.331 278.26 138.659 277.084C137.987 275.884 137.651 274.432 137.651 272.728V269.992ZM170.428 280L163.732 271.432H161.14V280H157.9V253.864H161.14V268.192H163.048L168.628 262.18H173.092L166.072 269.38L174.604 280H170.428ZM185.393 269.992C185.393 268.288 185.729 266.848 186.401 265.672C187.073 264.472 187.973 263.584 189.101 263.008C190.229 262.432 191.465 262.144 192.809 262.144H194.897C196.649 262.144 198.149 262.672 199.397 263.728C200.645 264.76 201.377 266.284 201.593 268.3H198.209C197.993 267.292 197.537 266.536 196.841 266.032C196.169 265.504 195.173 265.24 193.853 265.24C191.981 265.24 190.637 265.696 189.821 266.608C189.029 267.52 188.633 268.84 188.633 270.568V272.152C188.633 273.88 189.029 275.2 189.821 276.112C190.637 277.024 191.981 277.48 193.853 277.48C195.293 277.48 196.361 277.18 197.057 276.58C197.753 275.98 198.173 275.116 198.317 273.988H201.665C201.521 276.148 200.813 277.792 199.541 278.92C198.269 280.024 196.721 280.576 194.897 280.576H192.809C191.465 280.576 190.229 280.288 189.101 279.712C187.973 279.136 187.073 278.26 186.401 277.084C185.729 275.884 185.393 274.432 185.393 272.728V269.992ZM213.71 262.144C215.102 262.144 216.374 262.432 217.526 263.008C218.678 263.584 219.59 264.46 220.262 265.636C220.958 266.812 221.306 268.264 221.306 269.992V272.728C221.306 274.456 220.958 275.908 220.262 277.084C219.59 278.26 218.678 279.136 217.526 279.712C216.374 280.288 215.102 280.576 213.71 280.576H211.622C210.23 280.576 208.958 280.288 207.806 279.712C206.654 279.136 205.73 278.26 205.034 277.084C204.362 275.908 204.026 274.456 204.026 272.728V269.992C204.026 268.264 204.362 266.812 205.034 265.636C205.73 264.46 206.654 263.584 207.806 263.008C208.958 262.432 210.23 262.144 211.622 262.144H213.71ZM218.066 270.568C218.066 268.84 217.646 267.52 216.806 266.608C215.99 265.696 214.61 265.24 212.666 265.24C210.722 265.24 209.33 265.696 208.49 266.608C207.674 267.52 207.266 268.84 207.266 270.568V272.152C207.266 273.88 207.674 275.2 208.49 276.112C209.33 277.024 210.722 277.48 212.666 277.48C214.61 277.48 215.99 277.024 216.806 276.112C217.646 275.2 218.066 273.88 218.066 272.152V270.568ZM236.387 262.72H239.987L233.867 280H228.683L222.563 262.72H226.163L230.663 276.76H231.887L236.387 262.72ZM250.58 262.144C251.996 262.144 253.304 262.432 254.504 263.008C255.728 263.584 256.7 264.472 257.42 265.672C258.164 266.848 258.536 268.288 258.536 269.992V271.972H244.388V272.152C244.388 273.88 244.808 275.2 245.648 276.112C246.512 277.024 247.928 277.48 249.896 277.48C252.68 277.48 254.384 276.46 255.008 274.42H258.392C258.08 276.436 257.228 277.972 255.836 279.028C254.468 280.06 252.836 280.576 250.94 280.576H248.852C246.596 280.576 244.76 279.916 243.344 278.596C241.952 277.276 241.256 275.32 241.256 272.728V269.992C241.256 268.288 241.616 266.848 242.336 265.672C243.08 264.472 244.052 263.584 245.252 263.008C246.476 262.432 247.796 262.144 249.212 262.144H250.58ZM249.896 265.24C248.072 265.24 246.74 265.588 245.9 266.284C245.084 266.956 244.604 267.964 244.46 269.308H255.332C255.188 267.964 254.696 266.956 253.856 266.284C253.04 265.588 251.72 265.24 249.896 265.24ZM274.397 262.72V265.816H270.905C270.233 265.816 269.525 266.032 268.781 266.464C268.037 266.896 267.401 267.568 266.873 268.48C266.345 269.392 266.081 270.532 266.081 271.9V280H262.841V262.72H266.081V265.924C266.657 265.012 267.497 264.256 268.601 263.656C269.705 263.032 270.821 262.72 271.949 262.72H274.397ZM88.3103 298.144C89.4143 298.144 90.4583 298.384 91.4423 298.864C92.4263 299.32 93.2303 300.088 93.8543 301.168C94.5023 302.224 94.8263 303.592 94.8263 305.272V316H91.5863V305.848C91.5863 304.24 91.2383 303.076 90.5423 302.356C89.8703 301.612 88.7783 301.24 87.2663 301.24C86.5703 301.24 85.8503 301.432 85.1063 301.816C84.3623 302.176 83.7263 302.788 83.1983 303.652C82.6943 304.492 82.4423 305.596 82.4423 306.964V316H79.2023V298.72H82.2263V301.564C82.8263 300.58 83.7023 299.764 84.8543 299.116C86.0303 298.468 87.1823 298.144 88.3103 298.144ZM108.47 298.144C109.862 298.144 111.134 298.432 112.286 299.008C113.438 299.584 114.35 300.46 115.022 301.636C115.718 302.812 116.066 304.264 116.066 305.992V308.728C116.066 310.456 115.718 311.908 115.022 313.084C114.35 314.26 113.438 315.136 112.286 315.712C111.134 316.288 109.862 316.576 108.47 316.576H106.382C104.99 316.576 103.718 316.288 102.566 315.712C101.414 315.136 100.49 314.26 99.7937 313.084C99.1217 311.908 98.7857 310.456 98.7857 308.728V305.992C98.7857 304.264 99.1217 302.812 99.7937 301.636C100.49 300.46 101.414 299.584 102.566 299.008C103.718 298.432 104.99 298.144 106.382 298.144H108.47ZM112.826 306.568C112.826 304.84 112.406 303.52 111.566 302.608C110.75 301.696 109.37 301.24 107.426 301.24C105.482 301.24 104.09 301.696 103.25 302.608C102.434 303.52 102.026 304.84 102.026 306.568V308.152C102.026 309.88 102.434 311.2 103.25 312.112C104.09 313.024 105.482 313.48 107.426 313.48C109.37 313.48 110.75 313.024 111.566 312.112C112.406 311.2 112.826 309.88 112.826 308.152V306.568ZM123.83 301.816V308.296C123.83 309.832 124.118 310.984 124.694 311.752C125.27 312.52 126.242 312.904 127.61 312.904H128.69V316H126.566C124.79 316 123.35 315.436 122.246 314.308C121.142 313.18 120.59 311.368 120.59 308.872V301.816H118.034V298.72H120.59V289.864H123.83V298.72H128.69V301.816H123.83ZM157.106 311.572C157.106 312.46 157.574 312.904 158.51 312.904V316C157.382 316 156.446 315.892 155.702 315.676C154.982 315.46 154.466 314.944 154.154 314.128C153.602 314.992 152.762 315.616 151.634 316C150.506 316.36 149.294 316.54 147.998 316.54C146.054 316.54 144.422 316.096 143.102 315.208C141.782 314.32 141.122 312.868 141.122 310.852V310.456C141.122 308.848 141.746 307.552 142.994 306.568C144.242 305.56 145.91 305.056 147.998 305.056H153.866C153.842 304.168 153.734 303.46 153.542 302.932C153.35 302.38 152.978 301.96 152.426 301.672C151.898 301.384 151.118 301.24 150.086 301.24H147.926C147.038 301.24 146.294 301.456 145.694 301.888C145.118 302.296 144.83 302.8 144.83 303.4H141.59C141.59 302.512 141.842 301.672 142.346 300.88C142.874 300.064 143.594 299.404 144.506 298.9C145.442 298.396 146.474 298.144 147.602 298.144H151.13C152.906 298.144 154.346 298.708 155.45 299.836C156.554 300.964 157.106 302.776 157.106 305.272V311.572ZM149.042 313.444C150.122 313.444 151.19 313.228 152.246 312.796C153.326 312.364 153.866 311.644 153.866 310.636V307.792H149.042C147.242 307.792 146.006 308.092 145.334 308.692C144.686 309.268 144.362 309.94 144.362 310.708C144.362 311.716 144.71 312.424 145.406 312.832C146.126 313.24 147.338 313.444 149.042 313.444ZM173.791 298.72H177.391L171.271 316H166.087L159.967 298.72H163.567L168.067 312.76H169.291L173.791 298.72ZM195.356 311.572C195.356 312.46 195.824 312.904 196.76 312.904V316C195.632 316 194.696 315.892 193.952 315.676C193.232 315.46 192.716 314.944 192.404 314.128C191.852 314.992 191.012 315.616 189.884 316C188.756 316.36 187.544 316.54 186.248 316.54C184.304 316.54 182.672 316.096 181.352 315.208C180.032 314.32 179.372 312.868 179.372 310.852V310.456C179.372 308.848 179.996 307.552 181.244 306.568C182.492 305.56 184.16 305.056 186.248 305.056H192.116C192.092 304.168 191.984 303.46 191.792 302.932C191.6 302.38 191.228 301.96 190.676 301.672C190.148 301.384 189.368 301.24 188.336 301.24H186.176C185.288 301.24 184.544 301.456 183.944 301.888C183.368 302.296 183.08 302.8 183.08 303.4H179.84C179.84 302.512 180.092 301.672 180.596 300.88C181.124 300.064 181.844 299.404 182.756 298.9C183.692 298.396 184.724 298.144 185.852 298.144H189.38C191.156 298.144 192.596 298.708 193.7 299.836C194.804 300.964 195.356 302.776 195.356 305.272V311.572ZM187.292 313.444C188.372 313.444 189.44 313.228 190.496 312.796C191.576 312.364 192.116 311.644 192.116 310.636V307.792H187.292C185.492 307.792 184.256 308.092 183.584 308.692C182.936 309.268 182.612 309.94 182.612 310.708C182.612 311.716 182.96 312.424 183.656 312.832C184.376 313.24 185.588 313.444 187.292 313.444ZM202.493 294.184C201.893 294.184 201.377 293.98 200.945 293.572C200.537 293.164 200.333 292.66 200.333 292.06C200.333 291.46 200.537 290.944 200.945 290.512C201.377 290.08 201.893 289.864 202.493 289.864C203.093 289.864 203.597 290.08 204.005 290.512C204.437 290.944 204.653 291.46 204.653 292.06C204.653 292.66 204.437 293.164 204.005 293.572C203.597 293.98 203.093 294.184 202.493 294.184ZM200.873 316V298.72H204.113V316H200.873ZM224.571 311.572C224.571 312.46 225.039 312.904 225.975 312.904V316C224.847 316 223.911 315.892 223.167 315.676C222.447 315.46 221.931 314.944 221.619 314.128C221.067 314.992 220.227 315.616 219.099 316C217.971 316.36 216.759 316.54 215.463 316.54C213.519 316.54 211.887 316.096 210.567 315.208C209.247 314.32 208.587 312.868 208.587 310.852V310.456C208.587 308.848 209.211 307.552 210.459 306.568C211.707 305.56 213.375 305.056 215.463 305.056H221.331C221.307 304.168 221.199 303.46 221.007 302.932C220.815 302.38 220.443 301.96 219.891 301.672C219.363 301.384 218.583 301.24 217.551 301.24H215.391C214.503 301.24 213.759 301.456 213.159 301.888C212.583 302.296 212.295 302.8 212.295 303.4H209.055C209.055 302.512 209.307 301.672 209.811 300.88C210.339 300.064 211.059 299.404 211.971 298.9C212.907 298.396 213.939 298.144 215.067 298.144H218.595C220.371 298.144 221.811 298.708 222.915 299.836C224.019 300.964 224.571 302.776 224.571 305.272V311.572ZM216.507 313.444C217.587 313.444 218.655 313.228 219.711 312.796C220.791 312.364 221.331 311.644 221.331 310.636V307.792H216.507C214.707 307.792 213.471 308.092 212.799 308.692C212.151 309.268 211.827 309.94 211.827 310.708C211.827 311.716 212.175 312.424 212.871 312.832C213.591 313.24 214.803 313.444 216.507 313.444ZM238.322 298.144C240.53 298.144 242.342 298.816 243.758 300.16C245.198 301.48 245.918 303.424 245.918 305.992V308.728C245.918 311.296 245.198 313.252 243.758 314.596C242.342 315.916 240.53 316.576 238.322 316.576C237.194 316.576 236.066 316.228 234.938 315.532C233.834 314.836 233.006 313.96 232.454 312.904V316H229.214V289.864H232.454V301.816C233.006 300.76 233.834 299.884 234.938 299.188C236.066 298.492 237.194 298.144 238.322 298.144ZM242.678 306.568C242.678 304.888 242.258 303.58 241.418 302.644C240.602 301.708 239.342 301.24 237.638 301.24C236.822 301.24 236.018 301.42 235.226 301.78C234.434 302.14 233.774 302.752 233.246 303.616C232.718 304.48 232.454 305.596 232.454 306.964V307.756C232.454 309.124 232.718 310.24 233.246 311.104C233.774 311.968 234.434 312.58 235.226 312.94C236.018 313.3 236.822 313.48 237.638 313.48C239.342 313.48 240.602 313.012 241.418 312.076C242.258 311.14 242.678 309.832 242.678 308.152V306.568ZM253.477 289.864V316H250.237V289.864H253.477ZM267.121 298.144C268.537 298.144 269.845 298.432 271.045 299.008C272.269 299.584 273.241 300.472 273.961 301.672C274.705 302.848 275.077 304.288 275.077 305.992V307.972H260.929V308.152C260.929 309.88 261.349 311.2 262.189 312.112C263.053 313.024 264.469 313.48 266.437 313.48C269.221 313.48 270.925 312.46 271.549 310.42H274.933C274.621 312.436 273.769 313.972 272.377 315.028C271.009 316.06 269.377 316.576 267.481 316.576H265.393C263.137 316.576 261.301 315.916 259.885 314.596C258.493 313.276 257.797 311.32 257.797 308.728V305.992C257.797 304.288 258.157 302.848 258.877 301.672C259.621 300.472 260.593 299.584 261.793 299.008C263.017 298.432 264.337 298.144 265.753 298.144H267.121ZM266.437 301.24C264.613 301.24 263.281 301.588 262.441 302.284C261.625 302.956 261.145 303.964 261.001 305.308H271.873C271.729 303.964 271.237 302.956 270.397 302.284C269.581 301.588 268.261 301.24 266.437 301.24ZM280.835 316.18C280.187 316.18 279.635 315.964 279.179 315.532C278.723 315.076 278.495 314.524 278.495 313.876C278.495 313.228 278.723 312.676 279.179 312.22C279.635 311.74 280.187 311.5 280.835 311.5C281.483 311.5 282.035 311.74 282.491 312.22C282.947 312.676 283.175 313.228 283.175 313.876C283.175 314.524 282.947 315.076 282.491 315.532C282.035 315.964 281.483 316.18 280.835 316.18Z" fill="#232326"/>
</svg>
