<svg width="378" height="378" viewBox="0 0 378 378" fill="none" xmlns="http://www.w3.org/2000/svg">
<rect width="378" height="378" rx="10" fill="#232326"/>
<path d="M269 117H241.28L227.65 96.56C226.92 95.4655 225.931 94.568 224.771 93.9471C223.611 93.3261 222.316 93.0008 221 93H157C155.684 93.0008 154.389 93.3261 153.229 93.9471C152.069 94.568 151.08 95.4655 150.35 96.56L136.71 117H109C102.635 117 96.5303 119.529 92.0294 124.029C87.5286 128.53 85 134.635 85 141V253C85 259.365 87.5286 265.47 92.0294 269.971C96.5303 274.471 102.635 277 109 277H269C275.365 277 281.47 274.471 285.971 269.971C290.471 265.47 293 259.365 293 253V141C293 134.635 290.471 128.53 285.971 124.029C281.47 119.529 275.365 117 269 117ZM225 193C225 200.12 222.889 207.08 218.933 213.001C214.977 218.921 209.355 223.535 202.777 226.26C196.198 228.984 188.96 229.697 181.977 228.308C174.993 226.919 168.579 223.491 163.544 218.456C158.509 213.421 155.081 207.007 153.692 200.023C152.303 193.04 153.016 185.802 155.74 179.223C158.465 172.645 163.079 167.023 168.999 163.067C174.92 159.111 181.88 157 189 157C198.548 157 207.705 160.793 214.456 167.544C221.207 174.295 225 183.452 225 193Z" fill="#151516"/>
<path d="M352.25 291.5V305H323V334.4H309.5V305H280.25V291.5H309.5V262.4H323V291.5H352.25Z" fill="#151516"/>
</svg>
