<svg width="142" height="145" viewBox="0 0 142 145" fill="none" xmlns="http://www.w3.org/2000/svg">
<path d="M127.667 0.416656H42.6666C34.875 0.416656 28.5 6.90416 28.5 14.8333V101.333C28.5 109.262 34.875 115.75 42.6666 115.75H127.667C135.458 115.75 141.833 109.262 141.833 101.333V14.8333C141.833 6.90416 135.458 0.416656 127.667 0.416656ZM113.5 36.4583H92.25V76.1042C92.25 80.8836 90.3843 85.4672 87.0633 88.8468C83.7424 92.2264 79.2382 94.125 74.5416 94.125C69.8451 94.125 65.3409 92.2264 62.0199 88.8468C58.699 85.4672 56.8333 80.8836 56.8333 76.1042C56.8333 71.3247 58.699 66.7411 62.0199 63.3615C65.3409 59.9819 69.8451 58.0833 74.5416 58.0833C78.5791 58.0833 82.1916 59.4529 85.1666 61.7596V22.0417H113.5V36.4583ZM14.3333 29.25H0.166626V130.167C0.166626 138.096 6.54163 144.583 14.3333 144.583H113.5V130.167H14.3333V29.25Z" fill="#151516"/>
</svg>
