<svg width="98" height="98" viewBox="0 0 98 98" fill="none" xmlns="http://www.w3.org/2000/svg">
<rect width="98" height="98" rx="10" fill="#151516"/>
<path d="M69.1668 24H39.6667C36.9626 24 34.7501 26.25 34.7501 29V59C34.7501 61.75 36.9626 64 39.6667 64H69.1668C71.8709 64 74.0834 61.75 74.0834 59V29C74.0834 26.25 71.8709 24 69.1668 24ZM64.2501 36.5H56.8751V50.25C56.8751 51.9076 56.2276 53.4973 55.075 54.6694C53.9224 55.8415 52.3592 56.5 50.7292 56.5C49.0993 56.5 47.5361 55.8415 46.3835 54.6694C45.2309 53.4973 44.5834 51.9076 44.5834 50.25C44.5834 48.5924 45.2309 47.0027 46.3835 45.8306C47.5361 44.6585 49.0993 44 50.7292 44C52.1305 44 53.3843 44.475 54.4167 45.275V31.5H64.2501V36.5ZM29.8334 34H24.9167V69C24.9167 71.75 27.1292 74 29.8334 74H64.2501V69H29.8334V34Z" fill="#232326"/>
</svg>
