<svg width="35" height="35" viewBox="0 0 35 35" fill="none" xmlns="http://www.w3.org/2000/svg">
<path d="M30.8233 30.1163C30.9977 30.2405 31.203 30.3143 31.4166 30.3296C31.6302 30.3449 31.8439 30.3012 32.0343 30.2031C32.2246 30.105 32.3843 29.9564 32.4959 29.7736C32.6074 29.5908 32.6665 29.3808 32.6666 29.1667V5.83334C32.6665 5.61919 32.6074 5.40921 32.4959 5.22641C32.3843 5.0436 32.2246 4.89502 32.0343 4.79694C31.8439 4.69886 31.6302 4.65508 31.4166 4.67038C31.203 4.68567 30.9977 4.75947 30.8233 4.88368L14.49 16.5503C14.3387 16.6583 14.2154 16.8007 14.1304 16.9659C14.0453 17.1311 14.001 17.3142 14.001 17.5C14.001 17.6858 14.0453 17.8689 14.1304 18.0341C14.2154 18.1993 14.3387 18.3418 14.49 18.4497L30.8233 30.1163ZM4.66662 4.66668H2.33329L2.33329 30.3333H4.66662L4.66662 4.66668Z" fill="#E5EEF2"/>
</svg>
