<svg width="48" height="48" viewBox="0 0 48 48" fill="none" xmlns="http://www.w3.org/2000/svg">
<g clip-path="url(#clip0_124_2)">
<path d="M47.221 30.2029L30.7207 44.4515C29.2764 45.6988 27 44.6862 27 42.7486V35.2436C11.941 35.0712 1.14441e-05 32.0531 1.14441e-05 17.7819C1.14441e-05 12.0219 3.71073 6.31548 7.81248 3.33207C9.09245 2.40104 10.9166 3.56954 10.4447 5.07873C6.1937 18.6736 12.461 22.2828 27 22.492V14.25C27 12.3094 29.2781 11.3013 30.7207 12.5471L47.221 26.7971C48.2589 27.6936 48.2604 29.3052 47.221 30.2029Z" fill="#E5EEF2"/>
</g>
<defs>
<clipPath id="clip0_124_2">
<rect width="48" height="48" fill="white" transform="matrix(-1 0 0 -1 48 48)"/>
</clipPath>
</defs>
</svg>
