<svg width="367" height="275" viewBox="0 0 367 275" fill="none" xmlns="http://www.w3.org/2000/svg">
<g clip-path="url(#clip0_34_53)">
<g clip-path="url(#clip1_34_53)">
<path d="M124.19 132.268L105.04 140.489L103.65 161.105C103.58 162.183 103.187 163.213 102.52 164.066C101.852 164.918 100.94 165.556 99.8973 165.898C98.8546 166.241 97.7274 166.273 96.6569 165.991C95.5863 165.71 94.6198 165.126 93.8783 164.314L79.8307 148.844L59.5431 153.711C58.4727 153.964 57.3455 153.901 56.3025 153.53C55.2595 153.159 54.3469 152.497 53.6788 151.626C53.0107 150.755 52.6168 149.714 52.5462 148.634C52.4757 147.553 52.7317 146.481 53.2823 145.551L63.7451 127.759L52.5676 110.151C51.9736 109.228 51.6685 108.159 51.6905 107.076C51.7125 105.993 52.0606 104.945 52.6911 104.063C53.3217 103.182 54.2066 102.506 55.235 102.121C56.2633 101.735 57.3893 101.657 58.4718 101.897L78.987 106.383L92.3963 90.6424C93.098 89.8159 94.0367 89.2147 95.0941 88.9145C96.1516 88.6142 97.2806 88.6284 98.339 88.9553C99.3974 89.2821 100.338 89.907 101.042 90.7511C101.746 91.5953 102.182 92.6211 102.296 93.6994L104.519 114.267L123.985 122.127C125.014 122.54 125.9 123.239 126.532 124.137C127.164 125.035 127.514 126.092 127.537 127.176C127.561 128.259 127.258 129.321 126.665 130.228C126.073 131.135 125.218 131.846 124.207 132.273L124.19 132.268Z" fill="#151516"/>
</g>
<path d="M208.838 177.056L189.146 192.199L193.311 216.742C193.532 218.025 193.368 219.345 192.84 220.535C192.312 221.726 191.443 222.735 190.341 223.437C189.239 224.138 187.954 224.501 186.646 224.479C185.338 224.458 184.065 224.053 182.987 223.315L162.533 209.244L140.597 220.788C139.439 221.392 138.127 221.643 136.825 221.509C135.524 221.375 134.291 220.862 133.281 220.035C132.27 219.207 131.527 218.102 131.144 216.857C130.761 215.612 130.755 214.282 131.127 213.034L138.17 189.185L120.414 171.784C119.474 170.874 118.825 169.71 118.547 168.435C118.27 167.16 118.377 165.833 118.854 164.619C119.332 163.405 120.159 162.359 121.233 161.611C122.306 160.864 123.577 160.448 124.887 160.417L149.698 159.762L160.697 137.466C161.271 136.296 162.181 135.322 163.312 134.666C164.442 134.01 165.742 133.701 167.049 133.779C168.356 133.857 169.61 134.318 170.655 135.104C171.699 135.889 172.487 136.965 172.918 138.195L181.219 161.641L205.768 165.24C207.065 165.427 208.278 165.99 209.254 166.86C210.231 167.73 210.928 168.867 211.258 170.129C211.588 171.391 211.537 172.722 211.11 173.954C210.683 175.187 209.9 176.266 208.859 177.057L208.838 177.056Z" fill="#151516"/>
<g clip-path="url(#clip2_34_53)">
<path d="M73.5299 64.5201L55.1654 72.0441L54.014 91.3334C53.9566 92.3427 53.5874 93.3035 52.9524 94.0957C52.3174 94.888 51.445 95.4765 50.444 95.7877C49.4431 96.0989 48.3581 96.119 47.3247 95.8455C46.2914 95.572 45.3555 95.017 44.634 94.2499L30.9677 79.6373L11.4775 84.0111C10.4491 84.2378 9.36327 84.1685 8.35561 83.8118C7.34794 83.455 6.46321 82.8267 5.81202 82.0053C5.16083 81.1839 4.77208 80.2059 4.69436 79.1936C4.61665 78.1812 4.85343 77.1795 5.37509 76.3136L15.2881 59.75L4.36578 43.1621C3.78552 42.2931 3.48203 41.2887 3.49336 40.275C3.5047 39.2613 3.83036 38.2833 4.4295 37.4637C5.02864 36.6441 5.87459 36.0194 6.86128 35.6679C7.84796 35.3163 8.93145 35.2537 9.97587 35.4878L29.7701 39.8738L42.5388 25.2581C43.2069 24.4906 44.1052 23.9362 45.1207 23.6647C46.1362 23.3932 47.2234 23.4167 48.2455 23.7323C49.2676 24.0479 50.1788 24.6415 50.8644 25.4383C51.55 26.2351 51.9793 27.1995 52.0983 28.2101L54.4256 47.4875L73.2399 55.0238C74.2345 55.4194 75.094 56.082 75.7107 56.9287C76.3274 57.7753 76.6738 58.7682 76.7065 59.783C76.7392 60.7977 76.4567 61.789 75.8945 62.6326C75.3323 63.4762 74.5153 64.1346 73.5461 64.5251L73.5299 64.5201Z" fill="#151516"/>
</g>
<g clip-path="url(#clip3_34_53)">
<path d="M183.629 18.6821L174.202 36.1462L185.545 51.7902C186.141 52.607 186.465 53.584 186.476 54.5992C186.488 55.6145 186.186 56.6228 185.61 57.4983C185.033 58.3737 184.207 59.0773 183.235 59.5212C182.262 59.9651 181.187 60.1296 180.143 59.994L160.309 57.3634L148.014 73.1059C147.362 73.9334 146.479 74.5685 145.473 74.9317C144.468 75.295 143.386 75.3703 142.361 75.1482C141.337 74.9261 140.416 74.4165 139.714 73.6831C139.012 72.9497 138.559 72.025 138.414 71.0247L135.573 51.9314L116.608 46.0333C115.609 45.7294 114.737 45.1454 114.103 44.3544C113.469 43.5634 113.1 42.6008 113.044 41.5871C112.987 40.5734 113.245 39.5539 113.785 38.6564C114.325 37.7588 115.123 37.0232 116.079 36.5418L134.165 27.3793L134.767 7.98096C134.797 6.96384 135.14 5.96545 135.753 5.1115C136.366 4.25755 137.222 3.58622 138.212 3.18205C139.202 2.77787 140.283 2.65891 141.319 2.84016C142.354 3.0214 143.298 3.49475 144.031 4.20059L158.056 17.6292L177.382 11.5238C178.402 11.1989 179.487 11.1661 180.5 11.4296C181.514 11.6931 182.412 12.2411 183.081 13.0049C183.749 13.7687 184.16 14.7143 184.26 15.7231C184.36 16.7319 184.146 17.759 183.645 18.6757L183.629 18.6821Z" fill="#151516"/>
</g>
<g clip-path="url(#clip4_34_53)">
<path d="M302.085 192.299L291.083 216.001L307.591 233.93C308.457 234.866 308.976 236.05 309.082 237.334C309.188 238.618 308.876 239.946 308.186 241.152C307.496 242.357 306.458 243.387 305.202 244.112C303.946 244.837 302.528 245.224 301.125 245.227L274.466 245.204L259.489 267.204C258.696 268.361 257.575 269.313 256.268 269.942C254.961 270.57 253.526 270.846 252.141 270.735C250.756 270.625 249.484 270.133 248.483 269.321C247.483 268.509 246.798 267.413 246.514 266.169L241.027 242.45L215.235 238.142C213.876 237.924 212.662 237.33 211.747 236.433C210.832 235.537 210.255 234.379 210.089 233.104C209.923 231.829 210.176 230.494 210.815 229.266C211.455 228.039 212.452 226.974 213.683 226.204L236.961 211.575L236.034 186.895C235.983 185.601 236.351 184.279 237.091 183.095C237.832 181.91 238.912 180.917 240.195 180.239C241.479 179.562 242.908 179.231 244.304 179.288C245.699 179.344 246.999 179.787 248.038 180.559L267.921 195.233L293.124 184.271C294.454 183.689 295.896 183.466 297.27 183.631C298.645 183.796 299.889 184.34 300.848 185.196C301.808 186.053 302.439 187.182 302.662 188.444C302.886 189.705 302.692 191.043 302.106 192.288L302.085 192.299Z" fill="#151516"/>
</g>
<path d="M285.5 58.25L296.076 77.3436L318.688 80.4064L302.094 94.3438L307.625 114.969L285.5 103.367L263.375 114.969L268.906 94.3438L252.312 80.4064L275.544 77.3436L285.5 58.25Z" fill="#151516"/>
<path d="M295.102 171.688L285.5 166.531L307.625 130.438H340.812C342.266 130.44 343.705 130.174 345.049 129.657C346.392 129.139 347.612 128.38 348.64 127.422C349.667 126.464 350.482 125.326 351.037 124.074C351.593 122.822 351.877 121.48 351.875 120.125V58.25C351.877 56.8952 351.593 55.5533 351.037 54.3012C350.482 53.0491 349.667 51.9114 348.64 50.9534C347.612 49.9954 346.392 49.2359 345.049 48.7183C343.705 48.2008 342.266 47.9355 340.812 47.9375H230.188C228.734 47.9355 227.295 48.2008 225.951 48.7183C224.608 49.2359 223.388 49.9954 222.36 50.9534C221.333 51.9114 220.518 53.0491 219.963 54.3012C219.407 55.5533 219.123 56.8952 219.125 58.25V120.125C219.123 121.48 219.407 122.822 219.963 124.074C220.518 125.326 221.333 126.464 222.36 127.422C223.388 128.38 224.608 129.139 225.951 129.657C227.295 130.174 228.734 130.44 230.188 130.438H279.969V140.75H230.188C224.32 140.75 218.692 138.577 214.543 134.709C210.394 130.841 208.063 125.595 208.063 120.125V58.25C208.062 55.5413 208.634 52.859 209.745 50.3564C210.857 47.8537 212.487 45.5798 214.541 43.6644C216.596 41.7491 219.035 40.2299 221.72 39.1936C224.404 38.1573 227.282 37.6243 230.188 37.625H340.812C343.718 37.6243 346.596 38.1573 349.28 39.1936C351.965 40.2299 354.404 41.7491 356.459 43.6644C358.513 45.5798 360.143 47.8537 361.255 50.3564C362.366 52.859 362.938 55.5413 362.938 58.25V120.125C362.938 125.595 360.606 130.841 356.457 134.709C352.308 138.577 346.68 140.75 340.812 140.75H314.069L295.102 171.688Z" fill="#151516"/>
</g>
<defs>
<clipPath id="clip0_34_53">
<rect width="367" height="275" fill="white"/>
</clipPath>
<clipPath id="clip1_34_53">
<rect width="90.0926" height="87.8423" fill="white" transform="translate(56.9182 70.4178) rotate(17.1608)"/>
</clipPath>
<clipPath id="clip2_34_53">
<rect width="87" height="82" fill="white" transform="translate(8.19446 6) rotate(17.1608)"/>
</clipPath>
<clipPath id="clip3_34_53">
<rect width="87" height="82" fill="white" transform="translate(96 14.8728) rotate(-22.2005)"/>
</clipPath>
<clipPath id="clip4_34_53">
<rect width="118.033" height="102.931" fill="white" transform="translate(185 202.099) rotate(-27.8273)"/>
</clipPath>
</defs>
</svg>
