<svg width="29" height="29" viewBox="0 0 29 29" fill="none" xmlns="http://www.w3.org/2000/svg">
<path d="M14.5 0.833374C16.3123 0.833374 18.0504 1.55331 19.3319 2.83481C20.6134 4.11631 21.3333 5.85439 21.3333 7.66671C21.3333 9.47902 20.6134 11.2171 19.3319 12.4986C18.0504 13.7801 16.3123 14.5 14.5 14.5C12.6877 14.5 10.9496 13.7801 9.6681 12.4986C8.3866 11.2171 7.66666 9.47902 7.66666 7.66671C7.66666 5.85439 8.3866 4.11631 9.6681 2.83481C10.9496 1.55331 12.6877 0.833374 14.5 0.833374ZM14.5 17.9167C22.0508 17.9167 28.1667 20.9746 28.1667 24.75V28.1667H0.833328V24.75C0.833328 20.9746 6.94916 17.9167 14.5 17.9167Z" fill="#E5EEF2"/>
</svg>
