<svg width="27" height="27" viewBox="0 0 27 27" fill="none" xmlns="http://www.w3.org/2000/svg">
<g clip-path="url(#clip0_230_2)">
<path d="M14.9175 3.71252C15.0936 3.58656 15.2996 3.509 15.515 3.48758C15.7305 3.46616 15.9477 3.50162 16.1452 3.59043C16.3426 3.67924 16.5133 3.81829 16.6401 3.99369C16.767 4.16909 16.8457 4.37471 16.8683 4.59002L16.875 4.71827V22.2818C16.8751 22.4983 16.8183 22.711 16.7105 22.8987C16.6026 23.0864 16.4474 23.2425 16.2604 23.3515C16.0733 23.4605 15.8609 23.5185 15.6444 23.5197C15.4279 23.5209 15.2149 23.4653 15.0266 23.3584L14.9186 23.2886L7.515 18H4.5C3.93235 18.0002 3.38561 17.7858 2.96938 17.3998C2.55315 17.0139 2.2982 16.4848 2.25563 15.9188L2.25 15.75V11.25C2.24982 10.6824 2.46421 10.1356 2.85018 9.7194C3.23616 9.30317 3.7652 9.04822 4.33125 9.00564L4.5 9.00002H7.515L14.9175 3.71252ZM22.1254 7.63089C22.9519 8.36884 23.6131 9.27325 24.0654 10.2848C24.5177 11.2963 24.751 12.392 24.75 13.5C24.751 14.6081 24.5177 15.7038 24.0654 16.7153C23.6131 17.7268 22.9519 18.6312 22.1254 19.3691C22.0156 19.4693 21.887 19.5467 21.7471 19.5969C21.6073 19.6471 21.4588 19.669 21.3104 19.6615C21.162 19.654 21.0165 19.6172 20.8824 19.5531C20.7483 19.4891 20.6282 19.3991 20.5291 19.2884C20.4299 19.1777 20.3537 19.0484 20.3048 18.9081C20.2559 18.7677 20.2354 18.6191 20.2442 18.4707C20.2531 18.3224 20.2913 18.1773 20.3566 18.0437C20.4219 17.9102 20.513 17.791 20.6246 17.6929C21.2155 17.166 21.688 16.5199 22.0113 15.7973C22.3345 15.0746 22.5011 14.2917 22.5 13.5C22.5 11.835 21.7778 10.3388 20.6246 9.30714C20.513 9.20904 20.4219 9.0898 20.3566 8.95629C20.2913 8.82279 20.2531 8.67767 20.2442 8.52932C20.2354 8.38097 20.2559 8.23233 20.3048 8.09199C20.3537 7.95164 20.4299 7.82237 20.5291 7.71165C20.6282 7.60093 20.7483 7.51094 20.8824 7.4469C21.0165 7.38285 21.162 7.346 21.3104 7.3385C21.4588 7.33099 21.6073 7.35296 21.7471 7.40315C21.887 7.45333 22.0156 7.53074 22.1254 7.63089ZM19.8754 10.1464C20.3475 10.568 20.7251 11.0846 20.9835 11.6623C21.242 12.2401 21.3754 12.866 21.375 13.4989C21.3758 14.1322 21.2426 14.7585 20.9841 15.3367C20.7257 15.9149 20.3478 16.4319 19.8754 16.8536C19.662 17.0431 19.3847 17.1444 19.0994 17.1371C18.8142 17.1298 18.5424 17.0143 18.3391 16.8142C18.1357 16.614 18.0161 16.344 18.0043 16.0589C17.9925 15.7738 18.0895 15.4949 18.2756 15.2786L18.3746 15.1774C18.8359 14.7634 19.125 14.166 19.125 13.5C19.1263 12.9239 18.9055 12.3695 18.5085 11.952L18.3746 11.8226C18.263 11.7245 18.1719 11.6053 18.1066 11.4718C18.0413 11.3383 18.0031 11.1932 17.9942 11.0448C17.9854 10.8965 18.0059 10.7478 18.0548 10.6075C18.1037 10.4671 18.1799 10.3379 18.2791 10.2272C18.3782 10.1164 18.4983 10.0264 18.6324 9.9624C18.7665 9.89835 18.912 9.86151 19.0604 9.854C19.2088 9.84649 19.3573 9.86846 19.4971 9.91865C19.637 9.96884 19.7656 10.0462 19.8754 10.1464Z" fill="#E5EEF2"/>
</g>
<defs>
<clipPath id="clip0_230_2">
<rect width="27" height="27" fill="white"/>
</clipPath>
</defs>
</svg>
